<?xml version="1.0" standalone="no"?>
<!DOCTYPE svg PUBLIC "-//W3C//DTD SVG 20010904//EN"
 "http://www.w3.org/TR/2001/REC-SVG-20010904/DTD/svg10.dtd">
<svg version="1.0" xmlns="http://www.w3.org/2000/svg"
 width="500.000000pt" height="500.000000pt" viewBox="0 0 500.000000 500.000000"
 preserveAspectRatio="xMidYMid meet">

<g transform="translate(0.000000,500.000000) scale(0.100000,-0.100000)"
fill="#000000" stroke="none">
<path d="M0 4686 l0 -314 38 -13 c20 -6 39 -15 42 -18 11 -13 79 -30 165 -41
50 -6 115 -15 145 -21 56 -9 114 -14 300 -26 58 -3 108 -10 111 -16 9 -14 313
18 370 39 99 36 237 36 374 1 60 -16 172 -41 233 -52 33 -7 42 -20 19 -28 -18
-7 5 -41 32 -45 11 -2 21 -9 21 -15 0 -21 59 58 60 79 0 20 -38 47 -67 49 -20
1 -26 14 -14 29 7 8 8 17 3 20 -20 12 56 226 80 226 5 0 8 6 8 14 0 13 29 31
37 23 2 -2 -3 -19 -11 -38 -18 -43 -21 -76 -11 -112 8 -28 31 -43 88 -56 27
-6 29 -10 33 -61 4 -50 8 -59 46 -92 43 -40 63 -47 71 -25 5 11 2 -19 -8 -83
-2 -16 -2 -30 1 -30 14 0 54 34 54 46 0 8 6 23 13 35 10 17 9 22 -5 30 -24 13
-23 25 4 32 18 5 19 8 8 21 -7 9 -24 16 -39 16 -20 0 -23 2 -11 10 25 16 59
11 81 -11 18 -18 21 -30 16 -72 -3 -32 -11 -55 -22 -63 -10 -8 -18 -24 -19
-37 -1 -28 -49 -87 -70 -87 -18 0 -22 -45 -6 -70 6 -9 5 -19 -3 -29 -10 -11
-8 -13 11 -7 18 6 22 4 22 -14 0 -17 -4 -20 -17 -15 -40 16 -54 17 -71 2 -9
-8 -30 -19 -45 -22 -15 -4 -41 -20 -57 -36 -15 -16 -33 -29 -39 -29 -6 0 -11
-4 -11 -10 0 -5 -7 -10 -16 -10 -8 0 -12 5 -9 10 3 6 -1 10 -9 10 -9 0 -16 5
-16 10 0 15 -17 12 -23 -4 -3 -8 3 -23 14 -34 21 -24 27 -84 7 -80 -7 2 -14
-8 -16 -21 l-4 -24 136 6 c124 5 139 8 185 34 31 17 55 39 62 56 13 32 85 97
108 97 11 0 8 -6 -9 -25 l-23 -24 34 9 c19 6 46 19 61 30 15 11 34 20 42 20 8
0 18 4 21 10 4 6 16 5 33 -4 36 -19 66 -52 57 -65 -5 -10 30 -88 46 -101 4 -3
10 -16 14 -30 4 -14 12 -28 18 -32 8 -4 7 -15 -1 -33 -7 -14 -12 -33 -12 -41
0 -9 -8 -23 -17 -32 -14 -14 -14 -18 -2 -20 25 -5 56 -65 61 -121 3 -29 10
-56 15 -60 15 -9 25 -99 12 -107 -6 -4 -8 -19 -5 -36 7 -34 -11 -58 -42 -58
-18 0 -19 4 -12 35 4 20 4 38 -1 41 -5 3 -9 21 -9 40 0 35 -16 46 -26 19 -4
-8 -12 -15 -20 -15 -8 0 -14 7 -14 15 0 8 -4 15 -10 15 -5 0 -10 -18 -10 -40
0 -24 -5 -40 -12 -40 -6 0 -8 -3 -5 -6 3 -4 1 -16 -6 -28 -6 -11 -12 -25 -13
-31 -2 -20 -24 -65 -31 -65 -5 0 -16 -17 -25 -38 -9 -21 -31 -52 -50 -70 -24
-24 -33 -42 -33 -65 0 -31 -2 -32 -44 -35 -39 -3 -43 -1 -32 12 9 11 10 29 3
73 -5 32 -10 48 -11 36 0 -13 -4 -23 -9 -23 -4 0 -12 -10 -17 -22 -6 -13 -19
-25 -30 -27 -11 -2 -24 -10 -28 -17 -7 -12 -24 -13 -83 -8 -67 6 -78 5 -104
-15 -16 -11 -38 -21 -49 -21 -17 0 -18 3 -8 25 7 14 15 25 19 25 4 0 15 16 24
35 27 57 14 79 -69 119 -58 28 -76 42 -90 70 -9 20 -22 36 -28 36 -11 0 -39
25 -39 35 0 11 -38 56 -47 57 -4 0 -16 4 -25 9 -24 13 -34 -8 -14 -30 9 -10
16 -24 16 -31 0 -7 8 -22 17 -32 10 -11 18 -38 19 -63 1 -24 4 -47 8 -53 3 -5
1 -23 -4 -40 -5 -21 -5 -34 2 -38 7 -4 9 -31 5 -73 -8 -96 -12 -103 -56 -95
-20 4 -43 7 -51 6 -8 0 -65 9 -127 20 -82 15 -124 18 -160 12 -45 -8 -43 -8
52 -15 110 -7 188 -31 267 -82 67 -44 85 -82 71 -149 -9 -44 -8 -54 4 -64 10
-6 16 -30 18 -63 1 -29 6 -56 11 -61 13 -12 65 0 70 16 2 8 7 22 11 32 3 9 7
22 7 27 1 12 36 12 168 1 l97 -8 55 55 c30 30 65 76 77 103 13 27 30 56 39 65
21 21 65 19 65 -3 0 -29 17 -21 92 47 101 92 251 313 237 350 -3 6 3 18 13 26
16 13 17 12 4 -4 -8 -9 -11 -20 -8 -23 3 -4 19 15 34 41 15 26 38 59 51 73 19
22 22 33 18 74 -5 37 -3 48 8 48 8 0 16 -6 19 -14 7 -17 -2 -86 -13 -101 -4
-5 -10 -26 -14 -45 -9 -46 -92 -192 -172 -301 -70 -95 -191 -214 -239 -235
-16 -7 -48 -30 -70 -50 -22 -20 -67 -57 -100 -82 -33 -25 -50 -43 -38 -40 12
3 43 -4 70 -17 43 -21 189 -57 283 -72 30 -4 37 -1 47 18 15 32 39 138 53 229
17 117 36 195 46 193 5 -2 9 5 9 15 0 9 4 28 9 42 5 14 10 32 11 40 4 31 39
100 50 100 7 0 15 -12 18 -27 3 -16 17 -46 32 -67 23 -34 25 -40 11 -48 -22
-13 -20 -23 9 -38 13 -7 22 -17 19 -21 -2 -4 1 -36 7 -71 6 -35 12 -78 13 -96
2 -19 7 -37 12 -40 6 -4 11 -36 12 -70 2 -35 3 -67 4 -70 4 -22 -24 -62 -43
-62 -17 0 -20 -4 -15 -22 3 -13 6 -28 6 -34 0 -6 39 -16 88 -23 103 -15 122
-20 122 -30 0 -5 7 -26 16 -47 21 -51 29 -186 13 -241 -7 -26 -24 -54 -43 -70
-17 -14 -31 -30 -31 -35 0 -5 -6 -13 -14 -17 -11 -7 -6 -16 20 -40 l34 -31
-48 21 c-60 25 -74 18 -19 -10 36 -18 59 -47 48 -58 -2 -3 -13 0 -24 6 -12 6
-24 11 -29 11 -4 -1 4 -7 19 -16 16 -8 39 -37 53 -67 39 -80 118 -179 193
-244 70 -61 125 -114 155 -152 26 -32 72 -127 92 -191 10 -30 21 -65 26 -78 7
-16 5 -30 -6 -45 -8 -12 -15 -30 -15 -41 0 -20 0 -20 15 0 14 18 15 16 11 -29
-5 -50 -35 -129 -46 -122 -4 2 -5 -7 -2 -20 2 -14 0 -25 -6 -25 -6 0 -21 -18
-33 -40 -14 -24 -28 -39 -36 -36 -7 3 -13 -1 -13 -10 0 -8 -7 -17 -15 -20 -8
-4 -15 -13 -15 -20 0 -8 -8 -18 -17 -21 -10 -4 -24 -13 -31 -20 -7 -7 -19 -13
-26 -13 -8 0 -19 -7 -26 -15 -7 -8 -16 -13 -20 -10 -4 3 -13 -2 -20 -10 -7 -8
-18 -15 -25 -15 -7 0 -24 -10 -39 -21 -15 -12 -29 -19 -32 -16 -3 3 4 10 15
17 12 6 21 15 21 20 0 6 -26 -3 -57 -18 -58 -29 -178 -60 -189 -49 -4 3 35 26
85 51 101 48 158 84 165 103 6 14 -28 3 -66 -21 -13 -7 -40 -17 -61 -20 -21
-4 -36 -10 -33 -14 5 -9 3 -9 -137 -13 l-108 -4 -24 30 c-30 37 -45 104 -38
173 4 35 2 52 -6 52 -6 0 -11 -6 -11 -14 0 -8 -7 -16 -15 -20 -8 -3 -15 -18
-15 -33 0 -25 -1 -26 -14 -8 -12 17 -14 17 -23 1 -10 -17 -43 -40 -75 -52 -10
-3 -18 -10 -18 -14 0 -14 -87 -49 -129 -51 -23 -2 -41 -7 -41 -12 0 -5 -11 -6
-25 -3 -18 5 -25 2 -25 -9 0 -8 4 -15 9 -15 5 0 11 -6 14 -12 10 -28 -47 -16
-87 18 -22 19 -46 34 -53 34 -7 0 -13 5 -13 11 0 6 -7 17 -15 25 -13 14 -15
13 -13 -7 3 -20 -2 -22 -46 -24 -26 -2 -51 -7 -55 -13 -3 -6 -67 -11 -149 -13
-133 -4 -145 -2 -158 15 -12 17 -14 18 -14 3 0 -15 -12 -17 -80 -17 -77 0 -80
1 -80 23 0 38 -71 89 -128 92 l-47 3 -7 44 c-3 23 -6 54 -6 68 0 24 0 24 13
-5 12 -27 13 -22 10 60 -4 116 -3 111 -17 97 -10 -10 -10 -15 1 -22 12 -7 12
-11 -2 -24 -11 -12 -17 -13 -20 -3 -2 6 -8 -15 -12 -48 -6 -50 -18 -102 -40
-170 -9 -27 -3 39 10 110 17 98 30 152 55 230 11 33 21 71 22 85 2 14 8 32 13
40 13 20 34 76 45 120 12 47 66 157 96 198 40 52 72 144 45 128 -5 -3 -12 1
-15 10 -3 9 -11 12 -18 8 -8 -5 -9 -2 -5 10 6 14 3 17 -9 12 -9 -4 -23 -1 -30
5 -8 6 -15 8 -15 3 -1 -5 -2 -16 -3 -24 0 -8 -7 -14 -14 -12 -8 1 -11 -6 -7
-25 3 -16 2 -22 -1 -15 -8 16 -19 15 -38 -4 -26 -25 -36 -7 -36 65 0 63 16
121 33 121 4 0 7 6 7 14 0 7 9 25 20 39 11 14 20 30 20 36 0 7 9 24 20 39 17
24 23 58 35 190 1 13 7 27 14 31 9 6 6 10 -11 15 -36 11 -138 17 -138 7 0 -4
-26 -14 -57 -20 -78 -18 -92 -31 -86 -84 3 -23 13 -50 21 -60 14 -16 13 -19
-6 -40 -12 -13 -24 -38 -28 -57 -3 -19 -11 -45 -17 -58 -10 -20 0 -126 20
-207 3 -14 2 -16 -5 -7 -15 23 -20 -19 -6 -48 11 -21 14 -22 20 -7 3 9 10 17
15 17 13 0 11 -28 -3 -32 -7 -3 -9 -12 -5 -22 4 -9 11 -14 17 -11 15 10 12 -5
-5 -22 -9 -8 -15 -23 -13 -32 3 -13 19 -17 89 -19 80 -3 87 -4 100 -28 10 -20
11 -29 1 -42 -7 -9 -19 -30 -27 -47 -12 -26 -20 -27 -16 -3 0 4 -7 4 -16 1
-11 -4 -13 -8 -5 -11 7 -2 10 -8 6 -13 -7 -13 -24 -11 -24 2 0 14 -43 49 -52
43 -4 -3 8 -35 27 -71 23 -45 33 -74 29 -90 -4 -12 -10 -20 -15 -17 -13 8
-671 4 -870 -5 -97 -5 -230 -5 -295 0 -66 4 -145 5 -176 2 l-58 -6 0 -553 0
-554 1293 0 c710 0 1297 4 1302 8 6 4 18 19 28 34 14 23 14 26 2 22 -8 -4 -15
-1 -15 5 0 20 55 90 71 91 10 0 21 16 29 42 7 24 20 48 27 55 8 6 15 17 17 25
2 14 46 63 46 51 0 -4 5 -2 11 4 9 9 25 7 63 -7 72 -27 201 -59 264 -67 46 -5
51 -8 39 -20 -9 -9 -36 -14 -75 -14 -35 0 -60 -5 -57 -10 4 -5 -1 -9 -10 -9
-8 0 -23 -16 -32 -35 -12 -24 -25 -36 -47 -41 -19 -4 -25 -9 -16 -12 8 -3 17
-9 20 -13 3 -5 24 -15 45 -22 24 -8 48 -26 60 -44 16 -24 30 -32 64 -37 24 -3
455 -6 957 -6 l914 0 0 54 c0 52 -1 55 -27 58 -35 4 -67 55 -57 93 4 18 18 31
45 42 l39 15 0 413 0 412 -44 6 c-24 4 -59 2 -77 -3 -19 -6 -121 -10 -228 -10
-179 0 -196 2 -227 21 -58 36 -58 99 1 154 28 27 44 33 98 39 36 3 96 3 135 0
38 -4 86 -4 105 0 33 6 35 9 31 39 -12 84 -13 227 -3 276 15 72 80 194 151
284 l58 72 0 819 0 819 -20 -18 c-64 -58 -160 16 -160 123 0 38 32 102 50 102
5 0 10 7 10 15 0 8 -6 15 -12 15 -21 0 -77 59 -85 88 -8 28 -8 88 -2 202 6
104 45 140 151 140 l68 0 0 365 0 365 -2500 0 -2500 0 0 -314z m2614 130 c9
-55 -1 -99 -20 -92 -9 3 -14 -2 -14 -14 0 -10 -4 -22 -10 -25 -5 -3 -10 1 -10
9 0 9 -6 13 -14 10 -10 -4 -18 7 -27 35 -10 35 -10 43 4 59 10 10 17 26 17 36
0 9 4 15 9 12 4 -3 17 1 27 8 25 19 31 14 38 -38z m262 0 c17 -13 15 -14 -21
-6 -22 5 -53 10 -70 13 -20 3 -12 5 21 6 30 0 58 -5 70 -13z m-151 -6 c-3 -5
-10 -10 -16 -10 -5 0 -9 5 -9 10 0 6 7 10 16 10 8 0 12 -4 9 -10z m-325 -70
c0 -5 -17 -10 -37 -11 -54 0 -99 -6 -175 -22 -38 -8 -68 -12 -68 -11 0 15 79
40 140 45 123 10 140 9 140 -1z m657 -47 c24 -27 43 -53 43 -58 0 -6 11 -27
25 -47 14 -20 25 -45 25 -55 -1 -13 -6 -9 -17 12 -23 43 -27 16 -9 -64 21 -94
21 -95 -18 -26 l-34 59 -1 -68 c0 -37 -3 -77 -6 -87 -8 -24 -25 -25 -25 -2 0
17 -47 73 -62 73 -4 0 -5 -13 -1 -30 8 -41 -12 -39 -26 3 -6 17 -20 43 -30 56
l-19 25 9 -45 c11 -57 11 -69 0 -69 -16 0 -59 155 -62 227 -2 39 0 75 4 79 4
4 7 -1 8 -12 0 -14 2 -15 6 -4 4 9 11 -3 17 -30 9 -35 16 -46 34 -48 12 -2 22
-9 22 -16 0 -8 6 -19 14 -25 7 -6 16 -26 20 -43 3 -17 9 -28 12 -25 4 3 1 27
-5 53 -11 41 -10 49 4 56 12 7 14 18 9 45 -5 26 -4 34 5 29 6 -4 11 -12 11
-17 0 -6 6 -17 14 -25 13 -12 14 -9 9 23 -3 21 -12 51 -19 67 -25 53 -12 49
43 -11z m-657 3 c0 -16 -6 -18 -103 -41 -76 -17 -116 -20 -101 -7 10 10 126
49 164 55 14 2 28 5 33 6 4 0 7 -5 7 -13z m32 -78 c-11 -13 -35 -31 -52 -42
l-32 -18 11 21 c7 11 18 21 26 21 8 0 15 3 15 8 0 4 10 12 23 18 32 17 33 16
9 -8z m352 -106 c-16 -43 -44 -94 -44 -81 0 3 11 43 25 89 14 46 26 93 27 104
1 12 3 2 5 -22 3 -26 -3 -62 -13 -90z m-485 115 c-2 -2 -17 -11 -34 -21 l-30
-17 24 20 c13 12 28 21 34 21 6 0 8 -1 6 -3z m131 -97 c-8 -5 -19 -10 -25 -10
-5 0 -3 5 5 10 8 5 20 10 25 10 6 0 3 -5 -5 -10z m81 -21 c-10 -17 -28 -37
-40 -45 -21 -15 -21 -15 -9 13 16 37 38 63 54 63 10 0 9 -8 -5 -31z m59 -68
c-11 -23 -23 -41 -26 -41 -10 0 6 53 23 80 25 37 27 7 3 -39z m603 29 c3 -11
1 -18 -4 -14 -5 3 -9 12 -9 20 0 20 7 17 13 -6z m-108 -160 c3 -5 1 -10 -4
-10 -6 0 -11 5 -11 10 0 6 2 10 4 10 3 0 8 -4 11 -10z m5 -70 c0 -34 -4 -50
-13 -50 -9 0 -12 12 -9 38 7 77 22 86 22 12z m-161 -80 c0 -41 -6 -106 -14
-145 -22 -101 -18 -255 6 -255 4 0 11 26 14 58 4 31 10 77 15 102 7 41 8 42 9
11 2 -55 21 -106 45 -117 12 -5 22 -20 24 -36 2 -16 7 -28 12 -28 5 0 17 -24
26 -54 17 -55 59 -115 71 -103 7 8 12 48 17 128 1 30 6 61 10 68 4 6 2 18 -4
26 -7 8 -10 22 -6 30 3 9 -8 58 -24 109 -33 101 -35 116 -20 116 6 0 10 -6 10
-14 0 -20 44 -100 48 -87 2 6 -3 25 -12 41 -8 17 -12 38 -9 46 3 8 0 21 -6 28
-7 8 -8 17 -3 20 5 3 15 -7 22 -22 7 -15 21 -43 30 -62 29 -59 32 -116 11
-250 -25 -157 -27 -164 -50 -225 l-20 -50 -1 38 c0 27 -7 43 -26 60 -30 25
-56 71 -47 81 4 4 -8 20 -25 36 -18 16 -32 35 -32 43 0 20 -26 41 -34 28 -15
-24 -16 -179 -1 -221 19 -53 19 -61 1 -54 -8 3 -21 23 -30 44 -8 21 -19 41
-23 43 -12 7 -4 -94 9 -120 15 -31 3 -41 -13 -11 -16 29 -18 40 -26 173 -12
203 -5 375 16 439 9 27 12 63 7 116 -3 42 -3 80 1 84 12 12 21 -33 22 -114z
m128 88 c-3 -7 -5 -2 -5 12 0 14 2 19 5 13 2 -7 2 -19 0 -25z m-867 -18 c-6
-11 -16 -20 -22 -20 -6 0 -3 9 7 20 10 11 20 20 22 20 2 0 -1 -9 -7 -20z m170
10 c0 -13 -11 -13 -30 0 -12 8 -11 10 8 10 12 0 22 -4 22 -10z m877 -27 c11 7
63 -91 63 -117 0 -9 5 -16 10 -16 6 0 10 -5 10 -11 0 -6 14 -31 30 -56 41 -60
34 -75 -13 -29 -21 20 -42 34 -48 30 -6 -4 -6 -11 2 -20 6 -8 9 -17 6 -20 -3
-3 -18 13 -32 36 -19 31 -28 59 -30 100 -1 31 -8 66 -14 78 -14 26 -15 54 -2
33 5 -7 13 -11 18 -8z m-852 -23 c4 -6 -5 -10 -19 -10 -14 0 -26 5 -26 10 0 6
9 10 19 10 11 0 23 -4 26 -10z m661 -142 c-3 -13 -9 -67 -12 -120 -4 -54 -11
-98 -16 -98 -4 0 -8 13 -8 28 0 16 -3 63 -6 103 -6 63 -4 78 10 92 24 24 40
21 32 -5z m182 -33 c-3 -3 -9 2 -12 12 -6 14 -5 15 5 6 7 -7 10 -15 7 -18z
m-938 -124 c0 -9 -22 -31 -31 -31 -3 0 -4 11 -2 24 3 16 10 23 19 19 8 -3 14
-8 14 -12z m566 -57 c-4 -14 -9 -24 -12 -21 -3 2 -2 17 2 31 3 15 9 25 11 22
3 -3 2 -17 -1 -32z m371 -16 c-3 -8 -6 -5 -6 6 -1 11 2 17 5 13 3 -3 4 -12 1
-19z m-391 -55 c-18 -98 -18 -153 -2 -202 15 -46 14 -81 -4 -81 -11 0 -30 106
-30 172 0 32 -3 58 -7 58 -5 -1 -21 -21 -36 -45 -16 -25 -34 -45 -40 -45 -9 0
-9 2 0 8 6 4 15 20 18 35 4 15 11 27 15 27 5 0 20 25 35 55 31 67 62 77 51 18z
m554 -48 c0 -24 -4 -34 -11 -29 -8 4 -9 -1 -4 -17 7 -24 7 -23 -14 2 -37 47
-53 106 -26 95 10 -3 15 1 15 11 0 14 3 13 20 -5 12 -13 20 -35 20 -57z m-115
45 c3 -5 1 -10 -4 -10 -6 0 -11 5 -11 10 0 6 2 10 4 10 3 0 8 -4 11 -10z m392
-66 c95 -24 164 -55 173 -78 10 -27 -10 -66 -52 -101 -18 -15 -33 -34 -34 -42
-5 -35 -22 -41 -72 -25 -26 8 -55 19 -64 24 -11 5 -18 4 -18 -2 0 -5 -4 -10
-9 -10 -5 0 -15 26 -21 57 -18 83 -39 123 -66 123 -16 0 -25 9 -33 31 -6 18
-11 36 -11 41 0 12 136 0 207 -18z m-239 -26 c-3 -7 -11 -13 -18 -13 -7 0 -15
6 -17 13 -3 7 4 12 17 12 13 0 20 -5 18 -12z m-428 -8 c0 -5 -4 -10 -10 -10
-5 0 -10 5 -10 10 0 6 5 10 10 10 6 0 10 -4 10 -10z m460 -37 c0 -34 -1 -36
-16 -21 -13 12 -14 20 -5 37 16 30 21 26 21 -16z m-187 -53 c24 -44 25 -145 1
-197 -10 -21 -20 -40 -24 -43 -3 -3 -18 -22 -34 -43 -15 -21 -30 -36 -33 -33
-3 2 12 39 32 82 34 72 37 84 33 144 -3 38 -12 77 -22 92 -13 20 -14 27 -4 31
21 9 31 2 51 -33z m407 -134 c0 -11 -19 -15 -25 -6 -3 5 1 10 9 10 9 0 16 -2
16 -4z m-201 -164 c0 -31 -6 -82 -12 -113 -10 -46 -14 -54 -25 -43 -15 17 -10
65 13 122 9 23 15 55 13 72 -2 16 -1 27 4 24 4 -3 8 -31 7 -62z m-508 -28 c4
-16 7 -49 8 -74 1 -39 -1 -42 -13 -30 -8 8 -18 44 -22 79 -6 52 -4 63 7 59 8
-3 17 -18 20 -34z m220 -82 c-5 -10 -17 -25 -26 -32 -9 -8 -30 -34 -47 -58
-33 -48 -48 -51 -24 -5 13 26 92 113 103 113 2 0 -1 -8 -6 -18z m-91 -35 c0
-2 -9 -14 -20 -27 -22 -26 -27 -20 -8 10 11 17 28 27 28 17z m420 -46 c0 -6
-4 -12 -9 -15 -5 -3 -12 -23 -16 -43 -4 -21 -22 -70 -40 -110 -18 -39 -36 -90
-40 -113 -5 -31 -10 -38 -19 -30 -10 8 -11 24 -1 78 10 61 29 105 91 209 19
32 34 43 34 24z m-83 -23 c-3 -8 -6 -5 -6 6 -1 11 2 17 5 13 3 -3 4 -12 1 -19z
m-833 -133 c6 -18 -2 -45 -15 -45 -5 0 -9 -10 -9 -21 0 -20 -56 -94 -71 -94
-4 0 -16 -10 -27 -22 -23 -27 -32 -29 -32 -6 0 9 18 38 40 64 22 26 40 52 40
58 0 5 11 18 25 29 14 11 25 27 25 36 0 20 16 21 24 1z m646 -64 c0 -29 13
-33 27 -9 16 29 17 11 2 -66 -7 -39 -18 -65 -34 -80 -13 -11 -51 -75 -85 -141
-33 -66 -57 -107 -54 -91 4 16 25 65 48 110 40 80 41 83 40 181 l-2 100 19
-40 18 -40 1 53 c0 33 4 51 10 47 6 -3 10 -14 10 -24z m550 -15 c0 -2 -7 -6
-15 -10 -8 -3 -15 -1 -15 4 0 6 7 10 15 10 8 0 15 -2 15 -4z m-1375 -72 c3
-25 5 -47 3 -49 -2 -1 -17 -6 -34 -9 -30 -7 -31 -5 -37 30 -8 46 7 74 37 74
20 0 25 -6 31 -46z m650 -76 c-4 -18 -7 -57 -6 -86 l1 -54 -19 23 c-10 13 -17
29 -14 36 3 7 -2 22 -11 35 -19 27 -22 58 -4 40 20 -20 38 -14 38 13 0 14 5
25 11 25 7 0 8 -11 4 -32z m-835 7 c10 -13 15 -13 21 -3 6 9 10 8 15 -5 8 -22
-12 -47 -38 -47 -10 0 -17 -4 -14 -9 3 -4 -5 -22 -18 -40 -15 -20 -26 -27 -28
-19 -4 10 -11 9 -31 -5 -33 -21 -93 -22 -114 -1 -10 10 -25 13 -40 9 l-24 -6
21 21 c11 11 24 20 28 20 12 0 74 30 92 45 8 7 32 16 53 19 21 4 41 14 44 22
7 18 17 18 33 -1z m293 -116 c-10 -17 -22 -40 -28 -50 -5 -10 -19 -20 -30 -23
-11 -3 -29 -13 -40 -23 -11 -10 -40 -31 -64 -46 -38 -26 -46 -28 -67 -16 -13
7 -24 15 -24 18 0 3 23 22 51 41 28 19 61 43 73 55 29 26 103 75 115 75 5 0
12 8 16 18 7 16 8 16 12 0 2 -9 -4 -31 -14 -49z m1367 -141 c-33 -14 -180 -16
-202 -3 -12 7 19 11 105 12 94 1 116 -1 97 -9z m-466 -100 c6 -59 -8 -83 -18
-30 -5 27 -9 99 -6 117 3 20 17 -32 24 -87z m293 -396 c13 -15 23 -38 23 -52
0 -31 -49 -87 -84 -96 -83 -21 -154 64 -115 137 28 54 136 61 176 11z m-2332
-502 c-3 -5 -13 -10 -21 -10 -8 0 -14 5 -14 10 0 6 9 10 21 10 11 0 17 -4 14
-10z m32 -632 c-3 -7 -5 -2 -5 12 0 14 2 19 5 13 2 -7 2 -19 0 -25z m1369
-333 c25 -13 26 -15 8 -15 -12 0 -27 7 -34 15 -16 19 -10 19 26 0z m1248 -230
c53 -49 21 -118 -59 -130 -49 -7 -85 10 -104 49 -11 23 -11 32 0 53 30 55 117
71 163 28z m-2947 -17 c29 -27 30 -77 4 -109 -16 -20 -28 -24 -80 -24 -70 0
-88 13 -101 71 -8 33 -6 42 12 61 31 33 131 33 165 1z m257 -40 c10 -39 7 -68
-8 -68 -12 0 -26 40 -26 76 0 23 27 16 34 -8z"/>
<path d="M3145 3940 c3 -5 8 -10 11 -10 2 0 4 5 4 10 0 6 -5 10 -11 10 -5 0
-7 -4 -4 -10z"/>
<path d="M3330 3740 c0 -5 5 -10 10 -10 6 0 10 5 10 10 0 6 -4 10 -10 10 -5 0
-10 -4 -10 -10z"/>
<path d="M2072 4168 c-4 -18 -17 -38 -28 -43 -10 -6 -38 -22 -60 -37 -23 -15
-58 -30 -78 -33 -42 -8 -51 -29 -42 -99 9 -67 15 -79 32 -65 11 9 14 7 14 -10
l0 -21 25 22 c14 12 25 28 25 35 0 7 5 13 10 13 6 0 10 7 10 16 0 18 73 94 90
94 6 0 10 6 10 14 0 8 7 16 15 20 20 7 19 60 0 76 -14 12 -14 15 1 31 16 17
16 19 1 19 -10 0 -20 -13 -25 -32z"/>
<path d="M1770 3951 c0 -5 14 -14 31 -21 26 -11 32 -11 39 0 5 8 6 18 4 22 -7
11 -74 10 -74 -1z"/>
<path d="M4906 3854 c-7 -17 19 -54 37 -54 6 0 21 -10 34 -22 l23 -21 0 35 c0
27 -5 37 -20 41 -11 3 -20 12 -20 21 0 22 -46 21 -54 0z"/>
<path d="M1820 3845 c0 -8 7 -15 15 -15 19 0 19 -10 -1 -38 -14 -20 -14 -23 0
-28 9 -3 16 -15 16 -25 0 -18 19 -28 21 -11 8 68 6 95 -12 113 -23 23 -39 25
-39 4z"/>
<path d="M2310 3745 c-7 -8 -8 -15 -2 -15 5 0 15 7 22 15 7 8 8 15 2 15 -5 0
-15 -7 -22 -15z"/>
<path d="M2592 3423 c-18 -7 -4 -23 19 -23 12 0 19 5 17 12 -5 14 -18 18 -36
11z"/>
<path d="M2415 3398 c-3 -13 -4 -45 -3 -73 2 -37 7 -50 18 -50 12 0 16 16 18
73 2 59 0 72 -12 72 -9 0 -18 -10 -21 -22z"/>
<path d="M2640 3370 c0 -5 5 -10 11 -10 5 0 7 5 4 10 -3 6 -8 10 -11 10 -2 0
-4 -4 -4 -10z"/>
<path d="M2036 3242 c-22 -13 -30 -14 -33 -4 -3 6 -13 12 -23 12 -23 0 -39
-68 -18 -81 7 -5 9 -9 4 -9 -5 0 -3 -7 4 -15 8 -9 12 -37 11 -65 -1 -50 12
-71 32 -51 8 8 8 11 -1 11 -7 0 -12 9 -12 20 0 12 7 20 18 20 9 0 28 12 41 25
13 14 31 25 42 25 10 0 23 9 29 21 10 17 8 21 -8 25 -11 4 -22 19 -28 41 -11
44 -20 48 -58 25z"/>
<path d="M1360 3059 c0 -11 5 -17 10 -14 6 3 10 13 10 21 0 8 -4 14 -10 14 -5
0 -10 -9 -10 -21z"/>
<path d="M2820 2784 c0 -8 5 -12 10 -9 6 3 10 10 10 16 0 5 -4 9 -10 9 -5 0
-10 -7 -10 -16z"/>
<path d="M2785 2743 c-4 -13 -11 -23 -16 -23 -17 0 -9 -91 11 -132 11 -23 20
-49 20 -57 0 -12 3 -12 12 -3 9 9 9 15 0 24 -7 7 -12 20 -12 30 0 10 -4 18
-10 18 -14 0 -13 117 1 122 6 2 9 13 6 23 -5 19 -5 19 -12 -2z"/>
<path d="M1860 2361 c-51 -10 -64 -20 -50 -36 10 -12 17 -11 43 6 18 10 40 19
49 19 9 0 20 5 23 10 7 11 -12 11 -65 1z"/>
<path d="M2860 2310 c0 -5 5 -10 10 -10 6 0 10 5 10 10 0 6 -4 10 -10 10 -5 0
-10 -4 -10 -10z"/>
<path d="M1588 2123 c6 -2 18 -2 25 0 6 3 1 5 -13 5 -14 0 -19 -2 -12 -5z"/>
<path d="M1829 1993 c-15 -34 -15 -38 -2 -42 13 -2 14 -4 2 -12 -12 -7 -12 -9
1 -8 8 0 24 4 35 9 16 7 17 9 3 9 -12 1 -18 12 -20 42 l-3 40 -16 -38z"/>
<path d="M1928 1923 c7 -3 16 -2 19 1 4 3 -2 6 -13 5 -11 0 -14 -3 -6 -6z"/>
<path d="M1878 1913 c7 -3 16 -2 19 1 4 3 -2 6 -13 5 -11 0 -14 -3 -6 -6z"/>
<path d="M1825 1900 c-13 -6 -15 -9 -5 -9 8 0 22 4 30 9 18 12 2 12 -25 0z"/>
<path d="M2957 1829 c7 -7 15 -10 18 -7 3 3 -2 9 -12 12 -14 6 -15 5 -6 -5z"/>
<path d="M4961 1492 c-15 -12 -24 -34 -30 -72 -9 -66 -24 -96 -52 -105 -18 -6
-16 -9 20 -27 38 -18 41 -19 66 -2 17 11 24 22 20 34 -3 10 -1 21 5 25 12 8
14 165 1 165 -5 0 -19 -8 -30 -18z"/>
<path d="M1327 1374 c-8 -8 1 -24 14 -24 5 0 9 7 9 15 0 15 -12 20 -23 9z"/>
</g>
</svg>
